<svg width="150" height="100" xmlns="http://www.w3.org/2000/svg" xmlns:xlink="http://www.w3.org/1999/xlink" viewBox="0 0 114.04 57.31"><defs><style>.a{fill:none;}.b{fill:url(#a);}</style><linearGradient id="a" x1="16.49" y1="28.74" x2="98.41" y2="28.74" gradientUnits="userSpaceOnUse"><stop offset="0.03" stop-color="#026e99"/><stop offset="1" stop-color="#02cebf"/></linearGradient></defs><rect class="a" width="114.04" height="57.31"/><path class="b" d="M44.13,38.52a5.54,5.54,0,0,1-5.88-5.39H52.11C52.31,27.81,49.05,24,44,24c-4.83,0-8.27,3.56-8.27,8.48a8,8,0,0,0,8.3,8.35,7.84,7.84,0,0,0,7.67-5.12H49.19A5.36,5.36,0,0,1,44.13,38.52ZM44,26.28a5.33,5.33,0,0,1,5.44,4.56H38.37A5.57,5.57,0,0,1,44,26.28ZM16.49,32.51a8.47,8.47,0,1,0,16.94,0V28.78H31.06v3.73A6.1,6.1,0,1,1,25,26.42h8.47V24H25A8.48,8.48,0,0,0,16.49,32.51ZM31.06,21.66h2.37V16.49H31.06ZM73.92,32.51a8.47,8.47,0,1,0,16.94,0V28.78H88.48v3.73a6.09,6.09,0,1,1-6.09-6.09h16V24h-16A8.48,8.48,0,0,0,73.92,32.51ZM88.48,21.66h2.38V16.49H88.48ZM71.08,40.49H68.67V24h2.41ZM54.85,33.25V30.84H65.94v2.41ZM68.69,19.64h2.38V16.49H68.69Z"/></svg>